<svg xmlns="http://www.w3.org/2000/svg" version="1.1" xmlns:xlink="http://www.w3.org/1999/xlink" xmlns:svgjs="http://svgjs.dev/svgjs" width="1000" height="623" viewBox="0 0 1000 623"><g transform="matrix(1,0,0,1,-0.6060606060606233,0.5567483656782883)"><svg viewBox="0 0 396 247" data-background-color="#ffffff" preserveAspectRatio="xMidYMid meet" height="623" width="1000" xmlns="http://www.w3.org/2000/svg" xmlns:xlink="http://www.w3.org/1999/xlink"><g id="tight-bounds" transform="matrix(1,0,0,1,0.2400000000000091,-0.2207333006782335)"><svg viewBox="0 0 395.52 247.2" height="247.2" width="395.52"><g><svg></svg></g><g><svg viewBox="0 0 395.52 247.2" height="247.2" width="395.52"><g transform="matrix(1,0,0,1,39.55199999999999,72.50059107185486)"><svg viewBox="0 0 316.416 102.19881785629028" height="102.19881785629028" width="316.416"><g><svg viewBox="0 0 316.416 102.19881785629028" height="102.19881785629028" width="316.416"><g><svg viewBox="0 0 316.416 102.19881785629028" height="102.19881785629028" width="316.416"><g><svg viewBox="0 0 316.416 102.19881785629028" height="102.19881785629028" width="316.416"><g><svg viewBox="0 0 316.416 102.19881785629028" height="102.19881785629028" width="316.416"><g><svg viewBox="0 0 316.416 102.19881785629028" height="102.19881785629028" width="316.416"><g transform="matrix(1,0,0,1,0,0)"><svg width="316.416" viewBox="4.579999923706055 -33.75 105.87999725341797 34.209999084472656" height="102.19881785629028" data-palette-color="#06fcfb"><path d="M25.96-33.27L29.83-33.27 29.83 0 25.96 0 25.96-15.65 8.44-15.65 8.44 0 4.58 0 4.58-33.27 8.44-33.27 8.44-19.11 25.96-19.11 25.96-33.27ZM47.67-24.37L43.75-14.05 54.5-14.05 50.63-24.37Q49.85-26.49 49.09-29.17L49.09-29.17Q48.63-27.1 47.67-24.37L47.67-24.37ZM50.78-33.39L63.85 0 59.86 0 55.71-10.57 42.39-10.57 38.29 0 34.38 0 47.52-33.39 50.78-33.39ZM76.03-12.89L76.03 0 72.11 0 72.11-12.71 61.04-33.27 65.26-33.27 74.08-16.63 82.96-33.27 87.13-33.27 76.03-12.89ZM110.46-8.85L110.46-8.85Q110.46-4.45 107.29-2 104.11 0.46 98.41 0.46 92.71 0.46 89.53-1.06L89.53-1.06 89.53-4.8Q94.03-2.93 98.78-2.93L98.78-2.93Q102.6-2.93 104.58-4.37 106.56-5.81 106.56-8.49L106.56-8.49Q106.56-10.21 105.87-11.3 105.17-12.39 103.53-13.35 101.89-14.31 98.6-15.47L98.6-15.47Q93.98-17.11 91.97-19.39 89.96-21.66 89.96-25.43 89.96-29.2 92.84-31.47L92.84-31.47Q95.77-33.75 100.61-33.75 105.45-33.75 109.62-31.93L109.62-31.93 108.41-28.54Q104.29-30.28 100.42-30.28L100.42-30.28Q97.34-30.28 95.61-28.96 93.88-27.63 93.88-25.3L93.88-25.3Q93.88-23.53 94.49-22.47 95.11-21.41 96.66-20.42L96.66-20.42Q98.25-19.46 101.31-18.4L101.31-18.4Q106.56-16.53 108.49-14.38L108.49-14.38Q110.46-12.26 110.46-8.85Z" opacity="1" transform="matrix(1,0,0,1,0,0)" fill="#06fcfb" class="undefined-text-0" data-fill-palette-color="primary" id="text-0"></path></svg></g></svg></g></svg></g></svg></g><g></g></svg></g></svg></g></svg></g><g mask="url(#60bd4ff8-2f1a-4c59-a2e1-7748853310ad)"><g transform="matrix(4.245287618911752, 0, 0, 4.245287618911752, 28.608145285419596, 1.0000000000000142)"><svg xmlns="http://www.w3.org/2000/svg" data-name="Layer 1" viewBox="8.009010314941406 14.729999542236328 79.6892318725586 57.75815963745117" x="0" y="0" height="57.75815963745117" width="79.6892318725586" class="icon-none" data-fill-palette-color="accent" id="none"><path d="M53.28 55.64a0.92 0.92 0 0 1-0.55-0.18 14 14 0 0 1-2.19-2 4.93 4.93 0 0 0 0.13 0.5 0.92 0.92 0 0 1-1.42 1 6.11 6.11 0 0 1-1.65-2.11l-0.31-0.54a4.91 4.91 0 0 0-0.14 1 0.92 0.92 0 0 1-1.72 0.42l-1.84-3.27a0.92 0.92 0 0 1 1.61-0.9l0.69 1.23a6.75 6.75 0 0 1 0.34-0.66 0.92 0.92 0 0 1 1.26-0.33l0.07 0a4.76 4.76 0 0 1 1.25 1.41 1.24 1.24 0 0 1 0.15-0.23 1.21 1.21 0 0 1 1-0.43 1.91 1.91 0 0 1 1.34 0.81A12.11 12.11 0 0 0 52.64 53L53 50.74a1.39 1.39 0 0 1 0.44-0.86 1.33 1.33 0 0 1 1.63 0A9 9 0 0 1 57 51.31a0.92 0.92 0 1 1-1.28 1.33l0 0a7.21 7.21 0 0 0-1-0.82l-0.53 3.08A0.92 0.92 0 0 1 53.28 55.64Z" fill="#ffffff" data-fill-palette-color="accent"></path><path d="M87.39 69.26c-0.95-0.84-4.83-4.92-7.41-7.82l0.54 0.12a16.78 16.78 0 0 0 3 0.55 1.11 1.11 0 0 0 1.1-0.61 1 1 0 0 0-0.18-1.13 55.34 55.34 0 0 0-5.69-4.23c-1-0.69-2-1.39-2.74-1.94l1.55-0.62a0.92 0.92 0 0 0 0.34-1.48c-0.52-0.56-1.49-1.56-2.43-2.52L74.2 48.31l1.06-0.21a0.92 0.92 0 0 0 0.6-1.4 16.5 16.5 0 0 0-1.94-2.27c0.73 0.05 1.3 0.12 1.31 0.13h0.12a0.92 0.92 0 0 0 0.57-1.65c-2-1.83-4.1-3.82-5.46-5.17a7.75 7.75 0 0 0-0.32-0.73l1 0.15a8.51 8.51 0 0 0 1.17 0.14 1 1 0 0 0 1-0.7 1 1 0 0 0-0.56-1.23 56.41 56.41 0 0 1-7.11-6.27 60.9 60.9 0 0 0-5.93-5.36 3.12 3.12 0 0 0 2-1 0.92 0.92 0 0 0-0.28-1.27l-0.1-0.05A28.55 28.55 0 0 1 57.64 19c-2.78-2-5.92-4.27-9.14-4.27h0c-2.13 0-6.41 0.64-11.22 4.82L25.18 30a0.92 0.92 0 0 0 0.69 1.61l3.17-0.3-0.07 0.28c-1.52 1.9-3.72 4.34-5.81 6.58L15.91 19.56a1.66 1.66 0 1 0-3.11 1.15l0 0.05 7.83 20.08-2.4 2.5L17 44.65a0.92 0.92 0 0 0-0.06 1.17 3.36 3.36 0 0 0 2.84 1H20c-0.08 0.13-0.19 0.28-0.34 0.47s-0.67 1-1.27 1.86c-1.67 2.52-4.78 7.2-6.52 8.51a1 1 0 0 0-0.37 1.1c0.25 0.74 1 0.74 2 0.74h0.79c-1.88 3-3.92 5.93-6.08 8.71a0.92 0.92 0 0 0 1 1.45l7.63-2.28-0.05 0.56a0.92 0.92 0 0 0 1.25 0.95l4.73-1.82 0.58 1.49a0.92 0.92 0 0 0 1.19 0.52l0.16-0.08L26 68.15l1.73 2a0.92 0.92 0 0 0 0.68 0.32 0.91 0.91 0 0 0 0.69-0.29l2.56-2.7a51.26 51.26 0 0 1 3.82 4 0.92 0.92 0 0 0 1.3 0.1h0a12.08 12.08 0 0 0 1.5-1.7c0.77-1 1.5-1.93 2.28-1.93h0.11a7 7 0 0 1 1.23 0.95 6.4 6.4 0 0 0 1.36 1l5.51 2.51A0.92 0.92 0 0 0 50 71.76a40 40 0 0 0 0.64-4c3.27 1.06 7.73 4.45 7.78 4.49A0.92 0.92 0 0 0 59.85 72l1.83-3.7a25.06 25.06 0 0 1 4.8 2l0.2 0.16a0.92 0.92 0 0 0 1.26-1.34l4.82 2.25A0.92 0.92 0 0 0 74 70.89v0a12.48 12.48 0 0 0 0.58-1.61 2.72 2.72 0 0 1 0.69 0.09l4 1.48a0.91 0.91 0 0 0 0.34 0.06 0.92 0.92 0 0 0 0.54-1.65L78.71 67.9c0.62 0.28 1.26 0.59 1.87 0.89 2.26 1.09 4.4 2.13 5.83 2.13a2.55 2.55 0 0 0 0.59-0.07 0.92 0.92 0 0 0 0.39-1.58Zm-6-2.13C79.12 66 77 65 75.55 65a2.55 2.55 0 0 0-0.59 0.07 0.92 0.92 0 0 0-0.4 1.58l1 0.85a6.35 6.35 0 0 0-1.21-0.09h-0.52a0.92 0.92 0 0 0-0.86 0.82 5.57 5.57 0 0 1-0.27 1L66 66.15a0.92 0.92 0 0 0-1.3 1q0 0.13 0.05 0.27c-1.51-0.59-3-1.06-3.28-1.15a0.92 0.92 0 0 0-1.1 0.47l-1.69 3.43c-1.77-1.26-5.76-3.92-8.63-4.42a0.92 0.92 0 0 0-1.07 0.75v0.06c-0.14 1.24-0.28 2.46-0.51 3.71l-4.45-2a7.14 7.14 0 0 1-0.91-0.73 4.81 4.81 0 0 0-2.21-1.39l-0.34 0c-1.69 0-2.78 1.41-3.74 2.65-0.21 0.27-0.41 0.53-0.62 0.78a53.09 53.09 0 0 0-4-4 0.92 0.92 0 0 0-1.28 0.05l-2.49 2.61-1.58-1.83a0.92 0.92 0 0 0-1.19-0.18l-1.06 0.67-0.51-1.3A0.92 0.92 0 0 0 22.92 65l-4.19 1.62 0-0.44a0.92 0.92 0 0 0-1.18-1l-6.25 1.87c1.83-2.5 3.56-5.08 5.17-7.72a1 1 0 0 0 0-1c-0.32-0.57-1-0.66-2.06-0.67a76.38 76.38 0 0 0 5.43-7.49c0.55-0.83 1-1.48 1.19-1.76 0.66-0.87 1.22-1.78 0.83-2.6S20.62 45 19.81 45l-0.55 0 0.31-0.32 1.82-1.89L24.21 50l-2 0.78a1.65 1.65 0 0 0-0.82 2.4 1.58 1.58 0 0 0 0.11 0.36l0.21 0.54c0.16 0.4 0.35 0.86 0.56 1.35s0.44 1 0.67 1.53c0.47 1 0.93 2.08 1.27 2.86l0.11 0.27a14 14 0 0 0-1.57 2 0.92 0.92 0 0 0 1.5 1.07l0.06-0.09a12.14 12.14 0 0 1 1.2-1.6l0.07 0A0.64 0.64 0 0 0 26 61l0.38-0.37a1.84 1.84 0 0 1 0.22 1.28 0.92 0.92 0 0 0 1.46 0.93 7.76 7.76 0 0 0 1.78-2.14 10.73 10.73 0 0 1 0.8-1.14l0.44 1.89a0.92 0.92 0 0 0 1.48 0.5 8 8 0 0 0 1.82-2.42l0.31-0.53a3.38 3.38 0 0 1 1.84-1.76 0.92 0.92 0 0 0-0.42-1.8h0a4 4 0 0 0-1.92 1.17L33.94 56c-0.28-0.81-0.65-1.88-1-3-0.18-0.54-0.36-1.08-0.54-1.58s-0.35-1-0.5-1.37l-0.21-0.54a1.65 1.65 0 0 0-0.15-0.33 1.65 1.65 0 0 0-1.93-1.31l-0.3 0.09-2 0.78L23.9 40.09c1.57-1.67 3.23-3.48 4.67-5.15A0.92 0.92 0 0 0 30 35.4c0.84-0.56 1.71-1.09 2.6-1.58a7.16 7.16 0 0 0-0.87 3.05 0.92 0.92 0 0 0 1.52 0.7 16 16 0 0 1 1.86-1.36 0.92 0.92 0 0 0 0.92 0.85h0a0.92 0.92 0 0 0 0.92-0.92h0v-1.5a0.92 0.92 0 0 0-1.33-0.82q-0.68 0.34-1.32 0.73l0 0a9.39 9.39 0 0 0 0.85-2.41 0.92 0.92 0 0 0-1.3-1 36.31 36.31 0 0 0-3.22 1.7c0-0.14 0.05-0.27 0.08-0.41 0.5-0.64 0.93-1.22 1.24-1.71a0.92 0.92 0 0 0-0.86-1.41l-2.51 0.24 9.91-8.61c3.18-2.76 6.83-4.36 10-4.37 2.62 0 5.51 2.08 8.06 3.92 0.79 0.57 1.56 1.12 2.3 1.61a2.94 2.94 0 0 0-1.91 1 0.92 0.92 0 0 0 0.28 1.27l0.06 0c2 1.11 4.5 3.53 7.11 6.08 1.65 1.62 3.34 3.27 5 4.67h-0.17a2.05 2.05 0 0 0-1.68 0.61 1.31 1.31 0 0 0-0.23 1.15 3.57 3.57 0 0 0 1.09 1.43l-4.94-2.12a0.92 0.92 0 0 0-1.12 1.37A8 8 0 0 1 63.13 39a7.17 7.17 0 0 1-0.65-0.64 0.92 0.92 0 0 0-1.13-0.2 1.76 1.76 0 0 0-0.84 1.69L59 38.09a0.92 0.92 0 0 0-1.4 1.2l2 2.36a1.73 1.73 0 0 0 0.73 0.55 1.35 1.35 0 0 0 0.45 0.08 1.34 1.34 0 0 0 0.82-0.28 2 2 0 0 0 0.7-1.29 9.11 9.11 0 0 0 1.9 1.12 0.92 0.92 0 0 0 1.28-1 9.82 9.82 0 0 0-0.48-2l4.58 2a0.92 0.92 0 0 0 1.07-0.25l2.07 2h-0.25a8.75 8.75 0 0 0-1.26 0.08A0.92 0.92 0 0 0 71 44.32a13.64 13.64 0 0 1 2.47 2.27l-1.23 0.24a0.92 0.92 0 0 0-0.5 1.53c0.52 0.56 1.49 1.56 2.43 2.52l1.47 1.51-1.81 0.72a0.92 0.92 0 0 0-0.27 1.55c0.52 0.46 2.2 1.64 4.15 3 0.86 0.6 1.9 1.34 2.84 2a13.66 13.66 0 0 0-2.5-0.45 1.1 1.1 0 0 0-1.09 0.6A1 1 0 0 0 77.1 61c1.45 1.71 4.46 5 6.68 7.3-0.77-0.34-1.61-0.75-2.4-1.13Zm-52.93-9l0.33 0.8c-0.18 0.25-0.34 0.51-0.5 0.75l-0.17 0.27A3.6 3.6 0 0 0 27 58.61a0.92 0.92 0 0 0-1.12 0l-0.49 0.41c-0.27-0.77-0.59-1.73-0.91-2.7-0.18-0.54-0.36-1.08-0.54-1.58-0.12-0.35-0.24-0.67-0.35-1l2.53-1 0.4 1c0.21 0.49 0.44 1 0.67 1.53 0.47 1 0.93 2.08 1.27 2.86Zm-0.64-6l2.53-1 0.4 1c0.21 0.49 0.44 1 0.67 1.53 0.47 1 0.94 2.08 1.28 2.86l0.4 1 0.15 0.37v0l-0.14 0.23-0.33 0.57-0.33 0.57-0.33-1.4A0.92 0.92 0 0 0 31 57.1l-0.12 0a3.76 3.76 0 0 0-1.11 0.68l-0.06-0.16c-0.28-0.81-0.65-1.88-1-3-0.18-0.54-0.36-1.08-0.54-1.58-0.12-0.34-0.24-0.67-0.35-1Z" fill="#ffffff" data-fill-palette-color="accent"></path></svg></g></g></svg></g><defs><mask id="60bd4ff8-2f1a-4c59-a2e1-7748853310ad"><rect width="640" height="400" fill="white"></rect><rect width="348.05760000000004" height="132.0253384500129" fill="black" x="145.97119999999998" y="133.98733077499355" id="transform-me" transform="matrix(1,0,0,1,-122.24000000000001,-76.4)"></rect></mask></defs></svg><rect width="395.52" height="247.2" fill="none" stroke="none" visibility="hidden"></rect></g></svg></g></svg>